<svg viewBox="0 0 330 200" xmlns="http://www.w3.org/2000/svg"><g><g><g><g><g><line x1="50" y1="176.984375" x2="45" y2="176.984375" style="visibility: inherit;" fill="rgb(0, 0, 0)" stroke="rgb(204, 204, 204)" stroke-width="1px"></line><line x1="50" y1="163.37019230769232" x2="45" y2="163.37019230769232" style="visibility: inherit;" fill="rgb(0, 0, 0)" stroke="rgb(204, 204, 204)" stroke-width="1px"></line><line x1="50" y1="149.7560096153846" x2="45" y2="149.7560096153846" style="visibility: inherit;" fill="rgb(0, 0, 0)" stroke="rgb(204, 204, 204)" stroke-width="1px"></line><line x1="50" y1="136.1418269230769" x2="45" y2="136.1418269230769" style="visibility: inherit;" fill="rgb(0, 0, 0)" stroke="rgb(204, 204, 204)" stroke-width="1px"></line><line x1="50" y1="122.52764423076923" x2="45" y2="122.52764423076923" style="visibility: inherit;" fill="rgb(0, 0, 0)" stroke="rgb(204, 204, 204)" stroke-width="1px"></line><line x1="50" y1="108.91346153846155" x2="45" y2="108.91346153846155" style="visibility: inherit;" fill="rgb(0, 0, 0)" stroke="rgb(204, 204, 204)" stroke-width="1px"></line><line x1="50" y1="95.29927884615384" x2="45" y2="95.29927884615384" style="visibility: inherit;" fill="rgb(0, 0, 0)" stroke="rgb(204, 204, 204)" stroke-width="1px"></line><line x1="50" y1="81.68509615384616" x2="45" y2="81.68509615384616" style="visibility: inherit;" fill="rgb(0, 0, 0)" stroke="rgb(204, 204, 204)" stroke-width="1px"></line><line x1="50" y1="68.07091346153845" x2="45" y2="68.07091346153845" style="visibility: inherit;" fill="rgb(0, 0, 0)" stroke="rgb(204, 204, 204)" stroke-width="1px"></line><line x1="50" y1="54.456730769230774" x2="45" y2="54.456730769230774" style="visibility: inherit;" fill="rgb(0, 0, 0)" stroke="rgb(204, 204, 204)" stroke-width="1px"></line><line x1="50" y1="40.842548076923066" x2="45" y2="40.842548076923066" style="visibility: inherit;" fill="rgb(0, 0, 0)" stroke="rgb(204, 204, 204)" stroke-width="1px"></line><line x1="50" y1="27.228365384615387" x2="45" y2="27.228365384615387" style="visibility: inherit;" fill="rgb(0, 0, 0)" stroke="rgb(204, 204, 204)" stroke-width="1px"></line><line x1="50" y1="13.614182692307683" x2="45" y2="13.614182692307683" style="visibility: inherit;" fill="rgb(0, 0, 0)" stroke="rgb(204, 204, 204)" stroke-width="1px"></line><line x1="50" y1="0" x2="45" y2="0" style="visibility: inherit;" fill="rgb(0, 0, 0)" stroke="rgb(204, 204, 204)" stroke-width="1px"></line></g><g transform="translate(40, 0)"><text x="0" y="176.984375" dx="0em" dy="0.3em" style="text-anchor: end; visibility: hidden; font-family: Roboto, sans-serif; font-size: 12px; font-weight: 200;" fill="rgb(255, 255, 255)" stroke="none" stroke-width="1px">91.5</text><text x="0" y="163.37019230769232" dx="0em" dy="0.3em" style="text-anchor: end; visibility: inherit; font-family: Roboto, sans-serif; font-size: 12px; font-weight: 200;" fill="rgb(255, 255, 255)" stroke="none" stroke-width="1px">92</text><text x="0" y="149.7560096153846" dx="0em" dy="0.3em" style="text-anchor: end; visibility: hidden; font-family: Roboto, sans-serif; font-size: 12px; font-weight: 200;" fill="rgb(255, 255, 255)" stroke="none" stroke-width="1px">92.5</text><text x="0" y="136.1418269230769" dx="0em" dy="0.3em" style="text-anchor: end; visibility: inherit; font-family: Roboto, sans-serif; font-size: 12px; font-weight: 200;" fill="rgb(255, 255, 255)" stroke="none" stroke-width="1px">93</text><text x="0" y="122.52764423076923" dx="0em" dy="0.3em" style="text-anchor: end; visibility: hidden; font-family: Roboto, sans-serif; font-size: 12px; font-weight: 200;" fill="rgb(255, 255, 255)" stroke="none" stroke-width="1px">93.5</text><text x="0" y="108.91346153846155" dx="0em" dy="0.3em" style="text-anchor: end; visibility: inherit; font-family: Roboto, sans-serif; font-size: 12px; font-weight: 200;" fill="rgb(255, 255, 255)" stroke="none" stroke-width="1px">94</text><text x="0" y="95.29927884615384" dx="0em" dy="0.3em" style="text-anchor: end; visibility: hidden; font-family: Roboto, sans-serif; font-size: 12px; font-weight: 200;" fill="rgb(255, 255, 255)" stroke="none" stroke-width="1px">94.5</text><text x="0" y="81.68509615384616" dx="0em" dy="0.3em" style="text-anchor: end; visibility: inherit; font-family: Roboto, sans-serif; font-size: 12px; font-weight: 200;" fill="rgb(255, 255, 255)" stroke="none" stroke-width="1px">95</text><text x="0" y="68.07091346153845" dx="0em" dy="0.3em" style="text-anchor: end; visibility: hidden; font-family: Roboto, sans-serif; font-size: 12px; font-weight: 200;" fill="rgb(255, 255, 255)" stroke="none" stroke-width="1px">95.5</text><text x="0" y="54.456730769230774" dx="0em" dy="0.3em" style="text-anchor: end; visibility: inherit; font-family: Roboto, sans-serif; font-size: 12px; font-weight: 200;" fill="rgb(255, 255, 255)" stroke="none" stroke-width="1px">96</text><text x="0" y="40.842548076923066" dx="0em" dy="0.3em" style="text-anchor: end; visibility: hidden; font-family: Roboto, sans-serif; font-size: 12px; font-weight: 200;" fill="rgb(255, 255, 255)" stroke="none" stroke-width="1px">96.5</text><text x="0" y="27.228365384615387" dx="0em" dy="0.3em" style="text-anchor: end; visibility: inherit; font-family: Roboto, sans-serif; font-size: 12px; font-weight: 200;" fill="rgb(255, 255, 255)" stroke="none" stroke-width="1px">97</text><text x="0" y="13.614182692307683" dx="0em" dy="0.3em" style="text-anchor: end; visibility: hidden; font-family: Roboto, sans-serif; font-size: 12px; font-weight: 200;" fill="rgb(255, 255, 255)" stroke="none" stroke-width="1px">97.5</text><text x="0" y="0" dx="0em" dy="0.3em" style="text-anchor: end; visibility: hidden; font-family: Roboto, sans-serif; font-size: 12px; font-weight: 200;" fill="rgb(255, 255, 255)" stroke="none" stroke-width="1px">98</text></g><line x1="50" y1="0" x2="50" y2="176.984375" fill="rgb(0, 0, 0)" stroke="rgb(204, 204, 204)" stroke-width="1px"></line></g></g><g transform="translate(50, 0)" clip-path="url(#clip_0)"><clipPath id="clip_0"><rect width="280" height="176"></rect></clipPath><g><g><g><line x1="0" y1="0" x2="0" y2="176.984375" fill="rgb(0, 0, 0)" stroke="rgb(189, 189, 189)" stroke-width="1px" opacity="0.25"></line><line x1="23.333333333333332" y1="0" x2="23.333333333333332" y2="176.984375" fill="rgb(0, 0, 0)" stroke="rgb(189, 189, 189)" stroke-width="1px" opacity="0.25"></line><line x1="46.666666666666664" y1="0" x2="46.666666666666664" y2="176.984375" fill="rgb(0, 0, 0)" stroke="rgb(189, 189, 189)" stroke-width="1px" opacity="0.25"></line><line x1="70" y1="0" x2="70" y2="176.984375" fill="rgb(0, 0, 0)" stroke="rgb(189, 189, 189)" stroke-width="1px" opacity="0.25"></line><line x1="93.33333333333333" y1="0" x2="93.33333333333333" y2="176.984375" fill="rgb(0, 0, 0)" stroke="rgb(189, 189, 189)" stroke-width="1px" opacity="0.25"></line><line x1="116.66666666666667" y1="0" x2="116.66666666666667" y2="176.984375" fill="rgb(0, 0, 0)" stroke="rgb(189, 189, 189)" stroke-width="1px" opacity="0.25"></line><line x1="140" y1="0" x2="140" y2="176.984375" fill="rgb(0, 0, 0)" stroke="rgb(189, 189, 189)" stroke-width="1px" opacity="0.25"></line><line x1="163.33333333333334" y1="0" x2="163.33333333333334" y2="176.984375" fill="rgb(0, 0, 0)" stroke="rgb(189, 189, 189)" stroke-width="1px" opacity="0.25"></line><line x1="186.66666666666666" y1="0" x2="186.66666666666666" y2="176.984375" fill="rgb(0, 0, 0)" stroke="rgb(189, 189, 189)" stroke-width="1px" opacity="0.25"></line><line x1="210" y1="0" x2="210" y2="176.984375" fill="rgb(0, 0, 0)" stroke="rgb(189, 189, 189)" stroke-width="1px" opacity="0.25"></line><line x1="233.33333333333334" y1="0" x2="233.33333333333334" y2="176.984375" fill="rgb(0, 0, 0)" stroke="rgb(189, 189, 189)" stroke-width="1px" opacity="0.25"></line><line x1="256.66666666666663" y1="0" x2="256.66666666666663" y2="176.984375" fill="rgb(0, 0, 0)" stroke="rgb(189, 189, 189)" stroke-width="1px" opacity="0.25"></line><line x1="280" y1="0" x2="280" y2="176.984375" fill="rgb(0, 0, 0)" stroke="rgb(189, 189, 189)" stroke-width="1px" opacity="0.25"></line></g><g><line x1="0" y1="176.984375" x2="280" y2="176.984375" fill="rgb(0, 0, 0)" stroke="rgb(189, 189, 189)" stroke-width="1px" opacity="0.25"></line><line x1="0" y1="163.37019230769232" x2="280" y2="163.37019230769232" fill="rgb(0, 0, 0)" stroke="rgb(189, 189, 189)" stroke-width="1px" opacity="0.25"></line><line x1="0" y1="149.7560096153846" x2="280" y2="149.7560096153846" fill="rgb(0, 0, 0)" stroke="rgb(189, 189, 189)" stroke-width="1px" opacity="0.25"></line><line x1="0" y1="136.1418269230769" x2="280" y2="136.1418269230769" fill="rgb(0, 0, 0)" stroke="rgb(189, 189, 189)" stroke-width="1px" opacity="0.25"></line><line x1="0" y1="122.52764423076923" x2="280" y2="122.52764423076923" fill="rgb(0, 0, 0)" stroke="rgb(189, 189, 189)" stroke-width="1px" opacity="0.25"></line><line x1="0" y1="108.91346153846155" x2="280" y2="108.91346153846155" fill="rgb(0, 0, 0)" stroke="rgb(189, 189, 189)" stroke-width="1px" opacity="0.25"></line><line x1="0" y1="95.29927884615384" x2="280" y2="95.29927884615384" fill="rgb(0, 0, 0)" stroke="rgb(189, 189, 189)" stroke-width="1px" opacity="0.25"></line><line x1="0" y1="81.68509615384616" x2="280" y2="81.68509615384616" fill="rgb(0, 0, 0)" stroke="rgb(189, 189, 189)" stroke-width="1px" opacity="0.25"></line><line x1="0" y1="68.07091346153845" x2="280" y2="68.07091346153845" fill="rgb(0, 0, 0)" stroke="rgb(189, 189, 189)" stroke-width="1px" opacity="0.25"></line><line x1="0" y1="54.456730769230774" x2="280" y2="54.456730769230774" fill="rgb(0, 0, 0)" stroke="rgb(189, 189, 189)" stroke-width="1px" opacity="0.25"></line><line x1="0" y1="40.842548076923066" x2="280" y2="40.842548076923066" fill="rgb(0, 0, 0)" stroke="rgb(189, 189, 189)" stroke-width="1px" opacity="0.25"></line><line x1="0" y1="27.228365384615387" x2="280" y2="27.228365384615387" fill="rgb(0, 0, 0)" stroke="rgb(189, 189, 189)" stroke-width="1px" opacity="0.25"></line><line x1="0" y1="13.614182692307683" x2="280" y2="13.614182692307683" fill="rgb(0, 0, 0)" stroke="rgb(189, 189, 189)" stroke-width="1px" opacity="0.25"></line><line x1="0" y1="0" x2="280" y2="0" fill="rgb(0, 0, 0)" stroke="rgb(189, 189, 189)" stroke-width="1px" opacity="0.25"></line></g></g></g><g><g><line x1="0" y1="2668.3798076923076" x2="280" y2="2668.3798076923076" fill="rgb(0, 0, 0)" stroke="rgb(153, 153, 153)" stroke-width="1.5px"></line></g></g><g><g><line x1="23.333333333333332" y1="0" x2="23.333333333333332" y2="176.984375" fill="rgb(0, 0, 0)" stroke="rgb(153, 153, 153)" stroke-width="1.5px"></line></g></g><g><g><g><g><g><path stroke="rgb(51, 187, 238)" stroke-width="2px" d="M28,180.40475576339432L30.333333333333336,167.99224293400584L32.666666666666664,157.91254081018704L35,160.78319236042927L37.333333333333336,146.90407011471504L39.666666666666664,159.68490863717778L42,155.6250714284953L44.33333333333333,140.030893621501L46.666666666666664,137.003818034662L49,124.33605478838938L51.33333333333333,105.46258099642617L53.66666666666667,95.72026251064673L56,101.04682872735663L58.333333333333336,100.12517043764583L60.66666666666667,85.82778427695568L63,74.22396458699755L65.33333333333333,71.00481035262104L67.66666666666667,80.14326549398703L70,70.7237353885564L72.33333333333334,67.28007932060767L74.66666666666667,60.33723339136756L77,57.3267444247843L79.33333333333333,53.2940231129832L81.66666666666667,53.88748799995651L84,61.15802264207838L86.33333333333334,56.99277301070558L88.66666666666666,46.506174957509565L91,42.6832854560693L93.33333333333333,37.06826961548531L95.66666666666667,41.176757960964295L98,40.312175827869275L100.33333333333333,51.23186643275261L102.66666666666666,42.55489080605762L105,36.750426006488915L107.33333333333334,43.50081972935492L109.66666666666667,50.30247695063054L112,45.52378260601843L114.33333333333333,37.69516695040718L116.66666666666667,30.798572502876038L119,28.37601615305392L121.33333333333334,24.486986159661196L123.66666666666666,23.464298863964075L126,22.379292087113896L128.33333333333331,25.294864861625204L130.66666666666666,28.88067734759058L133,26.82542891991711L135.33333333333334,27.35961416318745L137.66666666666666,28.14154838343071L140,23.625794157893903L142.33333333333331,20.639304970386462L144.66666666666669,24.882389854973738L147,30.56995607755506L149.33333333333334,27.470389502525702L151.66666666666666,21.751829794030506L154,19.157205060020893L156.33333333333334,18.745221448570362L158.66666666666666,28.011257196582594L161,22.719833264282983L163.33333333333334,24.5739336822544L165.66666666666666,19.350198420118478L168,16.8135720206688L170.33333333333331,17.07638029994447L172.66666666666669,14.15525241890539L175,13.628217747847176L177.33333333333331,14.394882863463001L179.66666666666669,17.74116511042815L182,12.996934684261625L184.33333333333334,12.65186954726985L186.66666666666666,12.127409945759592L189,12.54014235922204L191.33333333333334,13.018119419744654L193.66666666666666,14.447037864956044L196,15.904995087478156L198.33333333333334,12.000596340253725L200.66666666666666,13.512539042180114L203,10.094393068592627L205.33333333333331,9.102958788437643L207.66666666666669,9.919954776283205L210,10.717518468715177L212.33333333333331,8.794213723229673L214.66666666666669,13.913939417515278L217,11.207059495012718L219.33333333333334,10.999773760056868L221.66666666666666,8.492089404161744L224,7.573709618836457L226.33333333333334,7.710453904283546L228.66666666666666,8.181631442031453L231,14.746106660804948L233.33333333333334,14.493926898962792L235.66666666666666,12.310961529486223L238,11.05776957839041L240.33333333333331,9.793660669235551L242.66666666666669,12.529729339397925L245,12.380105061160553L247.33333333333331,9.159334376992927L249.66666666666669,7.047388112638987L252,8.518263163439725L254.33333333333334,7.193136791519926" style="fill: none;" fill="none"></path></g></g></g></g><g opacity="0.2"><g><g><g><path stroke="rgb(51, 187, 238)" stroke-width="2px" d="M25.666666666666664,183.28230555240924L28,144.79631400108337L30.333333333333336,153.39512784664447L32.666666666666664,144.75248171732977L35,164.75433688897354L37.333333333333336,127.05670323738684L39.666666666666664,178.31949389897858L42,149.63760012846728L44.33333333333333,116.87535698597247L46.666666666666664,132.49066000718335L49,105.403347327159L51.33333333333333,77.21399547503546L53.66666666666667,81.12587099808914L56,109.03041687378516L58.333333333333336,98.74333302791302L60.66666666666667,64.38775521058304L63,56.82118126062247L65.33333333333333,66.17656940680283L67.66666666666667,93.85011291503906L70,56.59495681982773L72.33333333333334,62.11470853365384L74.66666666666667,49.923101571890015L77,52.811046637021576L79.33333333333333,47.244969808138336L81.66666666666667,54.77768279955938L84,72.06380600195664L86.33333333333334,50.74490495828482L88.66666666666666,30.77628753735468L91,36.9489533167619L93.33333333333333,28.645747716610256L95.66666666666667,47.339489661730255L98,39.01530273144061L100.33333333333333,67.61140155792236L102.66666666666666,29.539427738923283L105,28.043728956809414L107.33333333333334,53.62641020921561L109.66666666666667,60.50496271940378L112,38.355741115716796L114.33333333333333,25.952243493153503L116.66666666666667,20.453680845407344L119,24.74218163123498L121.33333333333334,18.653441172379704L123.66666666666666,21.930267920860874L126,20.751781922120305L128.33333333333331,29.66822402293866L130.66666666666666,34.25939607620239L133,23.74255627852219L135.33333333333334,28.160892028075008L137.66666666666666,29.314449713780334L140,16.852162819642277L142.33333333333331,16.159571189146785L144.66666666666669,31.24701718183664L147,39.10130541141217L149.33333333333334,22.82103963998648L151.66666666666666,13.173990231293889L154,15.265267959007845L156.33333333333334,18.127246031394375L158.66666666666666,41.910310818598816L161,14.782697365834165L163.33333333333334,27.355084309211147L165.66666666666666,11.51459552691534L168,13.00863242149353L170.33333333333331,17.470592718857976L172.66666666666669,9.773560597346377L175,12.837665741260228L177.33333333333331,15.544880536886357L179.66666666666669,22.760588480876038L182,5.880589045011079L184.33333333333334,12.13427184178278L186.66666666666666,11.340720543494596L189,13.15924097941473L191.33333333333334,13.735085010528564L193.66666666666666,16.590415532772365L196,18.091930921261135L198.33333333333334,6.143998219416689L200.66666666666666,15.780453095069303L203,4.967174108211818L205.33333333333331,7.615807368205141L207.66666666666669,11.145448758051943L210,11.913864007362948L212.33333333333331,5.90925660500159L214.66666666666669,21.593527958943298L217,7.146739611258878L219.33333333333334,10.688845157623291L221.66666666666666,4.730562870319066L224,6.196139940848722L226.33333333333334,7.9155703324537985L228.66666666666666,8.888397748653713L231,24.592819488965546L233.33333333333334,14.115657256199766L235.66666666666666,9.036513475271367L238,9.177981651746308L240.33333333333331,7.897497305503263L242.66666666666669,16.633832344642055L245,12.155668643804692L247.33333333333331,4.328178350742039L249.66666666666669,3.8794687161078807L252,10.724575739640446L254.33333333333334,5.205447233640229" style="fill: none;" fill="none"></path></g></g></g></g></g></g><g transform="translate(50, 176)" clip-path="url(#clip_1)"><clipPath id="clip_1"><rect width="280" height="23"></rect></clipPath><g><g><line x1="0" y1="0" x2="0" y2="5" style="visibility: inherit;" fill="rgb(0, 0, 0)" stroke="rgb(204, 204, 204)" stroke-width="1px"></line><line x1="23.333333333333332" y1="0" x2="23.333333333333332" y2="5" style="visibility: inherit;" fill="rgb(0, 0, 0)" stroke="rgb(204, 204, 204)" stroke-width="1px"></line><line x1="46.666666666666664" y1="0" x2="46.666666666666664" y2="5" style="visibility: inherit;" fill="rgb(0, 0, 0)" stroke="rgb(204, 204, 204)" stroke-width="1px"></line><line x1="70" y1="0" x2="70" y2="5" style="visibility: inherit;" fill="rgb(0, 0, 0)" stroke="rgb(204, 204, 204)" stroke-width="1px"></line><line x1="93.33333333333333" y1="0" x2="93.33333333333333" y2="5" style="visibility: inherit;" fill="rgb(0, 0, 0)" stroke="rgb(204, 204, 204)" stroke-width="1px"></line><line x1="116.66666666666667" y1="0" x2="116.66666666666667" y2="5" style="visibility: inherit;" fill="rgb(0, 0, 0)" stroke="rgb(204, 204, 204)" stroke-width="1px"></line><line x1="140" y1="0" x2="140" y2="5" style="visibility: inherit;" fill="rgb(0, 0, 0)" stroke="rgb(204, 204, 204)" stroke-width="1px"></line><line x1="163.33333333333334" y1="0" x2="163.33333333333334" y2="5" style="visibility: inherit;" fill="rgb(0, 0, 0)" stroke="rgb(204, 204, 204)" stroke-width="1px"></line><line x1="186.66666666666666" y1="0" x2="186.66666666666666" y2="5" style="visibility: inherit;" fill="rgb(0, 0, 0)" stroke="rgb(204, 204, 204)" stroke-width="1px"></line><line x1="210" y1="0" x2="210" y2="5" style="visibility: inherit;" fill="rgb(0, 0, 0)" stroke="rgb(204, 204, 204)" stroke-width="1px"></line><line x1="233.33333333333334" y1="0" x2="233.33333333333334" y2="5" style="visibility: inherit;" fill="rgb(0, 0, 0)" stroke="rgb(204, 204, 204)" stroke-width="1px"></line><line x1="256.66666666666663" y1="0" x2="256.66666666666663" y2="5" style="visibility: inherit;" fill="rgb(0, 0, 0)" stroke="rgb(204, 204, 204)" stroke-width="1px"></line><line x1="280" y1="0" x2="280" y2="5" style="visibility: inherit;" fill="rgb(0, 0, 0)" stroke="rgb(204, 204, 204)" stroke-width="1px"></line></g><g transform="translate(0, 8)"><text x="0" y="0" dx="0em" dy="0.95em" style="text-anchor: middle; visibility: hidden; font-family: Roboto, sans-serif; font-size: 12px; font-weight: 200;" fill="rgb(255, 255, 255)" stroke="none" stroke-width="1px">-10</text><text x="23.333333333333332" y="0" dx="0em" dy="0.95em" style="text-anchor: middle; visibility: inherit; font-family: Roboto, sans-serif; font-size: 12px; font-weight: 200;" fill="rgb(255, 255, 255)" stroke="none" stroke-width="1px">0</text><text x="46.666666666666664" y="0" dx="0em" dy="0.95em" style="text-anchor: middle; visibility: inherit; font-family: Roboto, sans-serif; font-size: 12px; font-weight: 200;" fill="rgb(255, 255, 255)" stroke="none" stroke-width="1px">10</text><text x="70" y="0" dx="0em" dy="0.95em" style="text-anchor: middle; visibility: inherit; font-family: Roboto, sans-serif; font-size: 12px; font-weight: 200;" fill="rgb(255, 255, 255)" stroke="none" stroke-width="1px">20</text><text x="93.33333333333333" y="0" dx="0em" dy="0.95em" style="text-anchor: middle; visibility: inherit; font-family: Roboto, sans-serif; font-size: 12px; font-weight: 200;" fill="rgb(255, 255, 255)" stroke="none" stroke-width="1px">30</text><text x="116.66666666666667" y="0" dx="0em" dy="0.95em" style="text-anchor: middle; visibility: inherit; font-family: Roboto, sans-serif; font-size: 12px; font-weight: 200;" fill="rgb(255, 255, 255)" stroke="none" stroke-width="1px">40</text><text x="140" y="0" dx="0em" dy="0.95em" style="text-anchor: middle; visibility: inherit; font-family: Roboto, sans-serif; font-size: 12px; font-weight: 200;" fill="rgb(255, 255, 255)" stroke="none" stroke-width="1px">50</text><text x="163.33333333333334" y="0" dx="0em" dy="0.95em" style="text-anchor: middle; visibility: inherit; font-family: Roboto, sans-serif; font-size: 12px; font-weight: 200;" fill="rgb(255, 255, 255)" stroke="none" stroke-width="1px">60</text><text x="186.66666666666666" y="0" dx="0em" dy="0.95em" style="text-anchor: middle; visibility: inherit; font-family: Roboto, sans-serif; font-size: 12px; font-weight: 200;" fill="rgb(255, 255, 255)" stroke="none" stroke-width="1px">70</text><text x="210" y="0" dx="0em" dy="0.95em" style="text-anchor: middle; visibility: inherit; font-family: Roboto, sans-serif; font-size: 12px; font-weight: 200;" fill="rgb(255, 255, 255)" stroke="none" stroke-width="1px">80</text><text x="233.33333333333334" y="0" dx="0em" dy="0.95em" style="text-anchor: middle; visibility: inherit; font-family: Roboto, sans-serif; font-size: 12px; font-weight: 200;" fill="rgb(255, 255, 255)" stroke="none" stroke-width="1px">90</text><text x="256.66666666666663" y="0" dx="0em" dy="0.95em" style="text-anchor: middle; visibility: inherit; font-family: Roboto, sans-serif; font-size: 12px; font-weight: 200;" fill="rgb(255, 255, 255)" stroke="none" stroke-width="1px">100</text><text x="280" y="0" dx="0em" dy="0.95em" style="text-anchor: middle; visibility: hidden; font-family: Roboto, sans-serif; font-size: 12px; font-weight: 200;" fill="rgb(255, 255, 255)" stroke="none" stroke-width="1px">110</text></g><line x1="0" y1="0" x2="280" y2="0" fill="rgb(0, 0, 0)" stroke="rgb(204, 204, 204)" stroke-width="1px"></line></g></g></g></g></svg>