<svg viewBox="0 0 330 200" xmlns="http://www.w3.org/2000/svg"><g><g><g><g><g><line x1="51.5625" y1="176.921875" x2="46.5625" y2="176.921875" style="visibility: inherit;" fill="rgb(0, 0, 0)" stroke="rgb(204, 204, 204)" stroke-width="1px"></line><line x1="51.5625" y1="151.6473214285714" x2="46.5625" y2="151.6473214285714" style="visibility: inherit;" fill="rgb(0, 0, 0)" stroke="rgb(204, 204, 204)" stroke-width="1px"></line><line x1="51.5625" y1="126.37276785714288" x2="46.5625" y2="126.37276785714288" style="visibility: inherit;" fill="rgb(0, 0, 0)" stroke="rgb(204, 204, 204)" stroke-width="1px"></line><line x1="51.5625" y1="101.09821428571428" x2="46.5625" y2="101.09821428571428" style="visibility: inherit;" fill="rgb(0, 0, 0)" stroke="rgb(204, 204, 204)" stroke-width="1px"></line><line x1="51.5625" y1="75.82366071428568" x2="46.5625" y2="75.82366071428568" style="visibility: inherit;" fill="rgb(0, 0, 0)" stroke="rgb(204, 204, 204)" stroke-width="1px"></line><line x1="51.5625" y1="50.54910714285714" x2="46.5625" y2="50.54910714285714" style="visibility: inherit;" fill="rgb(0, 0, 0)" stroke="rgb(204, 204, 204)" stroke-width="1px"></line><line x1="51.5625" y1="25.27455357142854" x2="46.5625" y2="25.27455357142854" style="visibility: inherit;" fill="rgb(0, 0, 0)" stroke="rgb(204, 204, 204)" stroke-width="1px"></line><line x1="51.5625" y1="0" x2="46.5625" y2="0" style="visibility: inherit;" fill="rgb(0, 0, 0)" stroke="rgb(204, 204, 204)" stroke-width="1px"></line></g><g transform="translate(41.5625, 0)"><text x="0" y="176.921875" dx="0em" dy="0.3em" style="text-anchor: end; visibility: hidden; font-family: Roboto, sans-serif; font-size: 12px; font-weight: 200;" fill="rgb(255, 255, 255)" stroke="none" stroke-width="1px">0.6</text><text x="0" y="151.6473214285714" dx="0em" dy="0.3em" style="text-anchor: end; visibility: inherit; font-family: Roboto, sans-serif; font-size: 12px; font-weight: 200;" fill="rgb(255, 255, 255)" stroke="none" stroke-width="1px">0.65</text><text x="0" y="126.37276785714288" dx="0em" dy="0.3em" style="text-anchor: end; visibility: inherit; font-family: Roboto, sans-serif; font-size: 12px; font-weight: 200;" fill="rgb(255, 255, 255)" stroke="none" stroke-width="1px">0.7</text><text x="0" y="101.09821428571428" dx="0em" dy="0.3em" style="text-anchor: end; visibility: inherit; font-family: Roboto, sans-serif; font-size: 12px; font-weight: 200;" fill="rgb(255, 255, 255)" stroke="none" stroke-width="1px">0.75</text><text x="0" y="75.82366071428568" dx="0em" dy="0.3em" style="text-anchor: end; visibility: inherit; font-family: Roboto, sans-serif; font-size: 12px; font-weight: 200;" fill="rgb(255, 255, 255)" stroke="none" stroke-width="1px">0.8</text><text x="0" y="50.54910714285714" dx="0em" dy="0.3em" style="text-anchor: end; visibility: inherit; font-family: Roboto, sans-serif; font-size: 12px; font-weight: 200;" fill="rgb(255, 255, 255)" stroke="none" stroke-width="1px">0.85</text><text x="0" y="25.27455357142854" dx="0em" dy="0.3em" style="text-anchor: end; visibility: inherit; font-family: Roboto, sans-serif; font-size: 12px; font-weight: 200;" fill="rgb(255, 255, 255)" stroke="none" stroke-width="1px">0.9</text><text x="0" y="0" dx="0em" dy="0.3em" style="text-anchor: end; visibility: hidden; font-family: Roboto, sans-serif; font-size: 12px; font-weight: 200;" fill="rgb(255, 255, 255)" stroke="none" stroke-width="1px">0.95</text></g><line x1="51.5625" y1="0" x2="51.5625" y2="176.921875" fill="rgb(0, 0, 0)" stroke="rgb(204, 204, 204)" stroke-width="1px"></line></g></g><g transform="translate(51, 0)" clip-path="url(#clip_0)"><clipPath id="clip_0"><rect width="278" height="176"></rect></clipPath><g><g><g><line x1="0" y1="0" x2="0" y2="176.921875" fill="rgb(0, 0, 0)" stroke="rgb(189, 189, 189)" stroke-width="1px" opacity="0.25"></line><line x1="23.203125" y1="0" x2="23.203125" y2="176.921875" fill="rgb(0, 0, 0)" stroke="rgb(189, 189, 189)" stroke-width="1px" opacity="0.25"></line><line x1="46.40625" y1="0" x2="46.40625" y2="176.921875" fill="rgb(0, 0, 0)" stroke="rgb(189, 189, 189)" stroke-width="1px" opacity="0.25"></line><line x1="69.609375" y1="0" x2="69.609375" y2="176.921875" fill="rgb(0, 0, 0)" stroke="rgb(189, 189, 189)" stroke-width="1px" opacity="0.25"></line><line x1="92.8125" y1="0" x2="92.8125" y2="176.921875" fill="rgb(0, 0, 0)" stroke="rgb(189, 189, 189)" stroke-width="1px" opacity="0.25"></line><line x1="116.015625" y1="0" x2="116.015625" y2="176.921875" fill="rgb(0, 0, 0)" stroke="rgb(189, 189, 189)" stroke-width="1px" opacity="0.25"></line><line x1="139.21875" y1="0" x2="139.21875" y2="176.921875" fill="rgb(0, 0, 0)" stroke="rgb(189, 189, 189)" stroke-width="1px" opacity="0.25"></line><line x1="162.421875" y1="0" x2="162.421875" y2="176.921875" fill="rgb(0, 0, 0)" stroke="rgb(189, 189, 189)" stroke-width="1px" opacity="0.25"></line><line x1="185.625" y1="0" x2="185.625" y2="176.921875" fill="rgb(0, 0, 0)" stroke="rgb(189, 189, 189)" stroke-width="1px" opacity="0.25"></line><line x1="208.828125" y1="0" x2="208.828125" y2="176.921875" fill="rgb(0, 0, 0)" stroke="rgb(189, 189, 189)" stroke-width="1px" opacity="0.25"></line><line x1="232.03125" y1="0" x2="232.03125" y2="176.921875" fill="rgb(0, 0, 0)" stroke="rgb(189, 189, 189)" stroke-width="1px" opacity="0.25"></line><line x1="255.234375" y1="0" x2="255.234375" y2="176.921875" fill="rgb(0, 0, 0)" stroke="rgb(189, 189, 189)" stroke-width="1px" opacity="0.25"></line><line x1="278.4375" y1="0" x2="278.4375" y2="176.921875" fill="rgb(0, 0, 0)" stroke="rgb(189, 189, 189)" stroke-width="1px" opacity="0.25"></line></g><g><line x1="0" y1="176.921875" x2="278.4375" y2="176.921875" fill="rgb(0, 0, 0)" stroke="rgb(189, 189, 189)" stroke-width="1px" opacity="0.25"></line><line x1="0" y1="151.6473214285714" x2="278.4375" y2="151.6473214285714" fill="rgb(0, 0, 0)" stroke="rgb(189, 189, 189)" stroke-width="1px" opacity="0.25"></line><line x1="0" y1="126.37276785714288" x2="278.4375" y2="126.37276785714288" fill="rgb(0, 0, 0)" stroke="rgb(189, 189, 189)" stroke-width="1px" opacity="0.25"></line><line x1="0" y1="101.09821428571428" x2="278.4375" y2="101.09821428571428" fill="rgb(0, 0, 0)" stroke="rgb(189, 189, 189)" stroke-width="1px" opacity="0.25"></line><line x1="0" y1="75.82366071428568" x2="278.4375" y2="75.82366071428568" fill="rgb(0, 0, 0)" stroke="rgb(189, 189, 189)" stroke-width="1px" opacity="0.25"></line><line x1="0" y1="50.54910714285714" x2="278.4375" y2="50.54910714285714" fill="rgb(0, 0, 0)" stroke="rgb(189, 189, 189)" stroke-width="1px" opacity="0.25"></line><line x1="0" y1="25.27455357142854" x2="278.4375" y2="25.27455357142854" fill="rgb(0, 0, 0)" stroke="rgb(189, 189, 189)" stroke-width="1px" opacity="0.25"></line><line x1="0" y1="0" x2="278.4375" y2="0" fill="rgb(0, 0, 0)" stroke="rgb(189, 189, 189)" stroke-width="1px" opacity="0.25"></line></g></g></g><g><g><line x1="0" y1="480.2165178571429" x2="278.4375" y2="480.2165178571429" fill="rgb(0, 0, 0)" stroke="rgb(153, 153, 153)" stroke-width="1.5px"></line></g></g><g><g><line x1="23.203125" y1="0" x2="23.203125" y2="176.921875" fill="rgb(0, 0, 0)" stroke="rgb(153, 153, 153)" stroke-width="1.5px"></line></g></g><g><g><g><g><g><path stroke="rgb(238, 51, 119)" stroke-width="2px" d="M27.84375,181.60887531909833L30.1640625,166.75970136908424L32.484375,156.80380117031333L34.8046875,169.29703302343614L37.125,155.79537915376977L39.4453125,175.7105928825867L41.765625,159.87053304049786L44.0859375,134.842445971014L46.40625,131.2236835615576L48.7265625,113.03948696898853L51.04687499999999,96.6201425868261L53.36718750000001,91.33186538197607L55.6875,94.9783171931883L58.0078125,100.95946769235243L60.328125,86.54734652501541L62.6484375,75.93926281083442L64.96875,74.43361795284575L67.2890625,83.40125739882987L69.609375,72.16321684103207L71.92968750000001,66.9501907523341L74.25,62.32435063527757L76.5703125,58.862465838808845L78.890625,55.246163636913586L81.2109375,58.44583303335985L83.53125,68.11459062078009L85.8515625,63.43758362490191L88.171875,54.455783960971054L90.4921875,49.976849862558325L92.8125,45.060211524052846L95.1328125,49.75527003970416L97.453125,47.616621630345854L99.7734375,58.07107560135726L102.09374999999999,49.46616509395953L104.4140625,44.93785706504241L106.73437500000001,51.94918293026222L109.0546875,57.24535686455917L111.375,53.76243961425029L113.6953125,46.52130833896745L116.015625,39.92800814740898L118.3359375,38.03247193950407L120.65625,34.74911409964948L122.9765625,34.013750790745824L125.296875,33.46294536706917L127.6171875,33.943587524469415L129.9375,37.45476908990085L132.2578125,36.08566529688857L134.578125,37.290805339372575L136.8984375,36.80040101275677L139.21875,33.384730225112975L141.5390625,31.322540743613054L143.85937500000003,34.23695553471415L146.1796875,39.51086586685258L148.5,36.84155202022363L150.8203125,32.315426533585054L153.140625,30.59824670754606L155.4609375,30.69769093591753L157.78125,39.7785621393087L160.1015625,34.67974284617827L162.421875,36.19027035027836L164.7421875,30.817153115894598L167.0625,27.91375342022376L169.38281249999997,27.445123734710055L171.703125,25.14829873344401L174.0234375,25.09084505022221L176.34375,25.86472632715928L178.66406250000003,27.351762718480664L180.984375,24.346128215589857L183.3046875,24.365360281628462L185.625,24.646680100673862L187.9453125,24.966638300240145L190.265625,25.437746032130715L192.5859375,25.975475946355235L194.90625,27.18657600411507L197.2265625,24.24419605493636L199.546875,25.572127527058647L201.8671875,22.929964379746863L204.18749999999997,22.070633556924015L206.5078125,22.60466651302338L208.828125,22.78485100313789L211.1484375,21.536875899700938L213.46875000000003,25.42568950120729L215.7890625,23.394751028162144L218.109375,23.506097131677485L220.4296875,21.960801625333193L222.75,20.86029466804209L225.0703125,20.59327839397052L227.390625,21.061367532677817L229.7109375,26.99489848592211L232.03125,26.862753166214304L234.3515625,24.51434435305335L236.671875,23.404992327095208L238.99218749999997,22.944816883547638L241.3125,25.405649756576725L243.6328125,25.33119738006612L245.953125,22.603266738421695L248.27343750000003,20.66945444583626L250.59375,21.92497171293679L252.9140625,20.903105372460278" style="fill: none;" fill="none"></path></g></g></g></g><g opacity="0.2"><g><g><g><path stroke="rgb(238, 51, 119)" stroke-width="2px" d="M23.203125,361.58679761351755L25.523437499999996,136.7033754943737L27.84375,143.76012318794216L30.1640625,149.2970728038677L32.484375,143.80537787079808L34.8046875,186.5796702397721L37.125,136.48779809368506L39.4453125,204.7471656852535L41.765625,136.50952154664054L44.0859375,97.67865354620983L46.40625,125.8283618560859L48.7265625,85.86214967497756L51.04687499999999,72.04473802181225L53.36718750000001,83.4098098602678L55.6875,100.44370864278501L58.0078125,109.92697507036583L60.328125,64.93526350068193L62.6484375,60.02983063086865L64.96875,72.17538003570266L67.2890625,96.85189689003994L69.609375,55.3067723251879L71.92968750000001,59.13082315613114L74.25,55.38568178883618L76.5703125,53.66967965343168L78.890625,49.82173603719896L81.2109375,63.24532348290084L83.53125,82.61770226220997L85.8515625,56.42208031139201L88.171875,40.98309273858153L90.4921875,43.258451190377976L92.8125,37.685255646705606L95.1328125,56.79785687902143L97.453125,44.40864927162015L99.7734375,73.75275580904312L102.09374999999999,36.55879970267413L104.4140625,38.145395138433976L106.73437500000001,62.46617161961536L109.0546875,65.18961771684032L111.375,48.538063758185906L113.6953125,35.65961145024213L116.015625,30.038057873291603L118.3359375,35.189167629927375L120.65625,29.824077342237732L122.9765625,32.910705827708746L125.296875,32.636737231697346L127.6171875,34.6645507604948L129.9375,42.72154143771952L132.2578125,34.03200960744702L134.578125,39.09851540305784L136.8984375,36.064794522843165L139.21875,28.261224043688582L141.5390625,28.22925652137822L143.85937500000003,38.60857772135308L146.1796875,47.421731365046305L148.5,32.83758125028437L150.8203125,25.526238303631523L153.140625,28.0224769684885L155.4609375,30.846857278474722L157.78125,53.399868944393724L160.1015625,27.031513906483113L162.421875,38.45606160642843L164.7421875,22.75747726431912L167.0625,23.55865387671759L169.38281249999997,26.74217920643941L171.703125,21.703061231545018L174.0234375,25.00466452538965L176.34375,27.0255482425647L178.66406250000003,29.582317305462688L180.984375,19.83767646125382L183.3046875,24.394208380686372L185.625,25.068659829241863L187.9453125,25.4465755995895L190.265625,26.144407629966715L192.5859375,26.782070817691913L194.90625,29.00322609075477L197.2265625,19.83062613116841L199.546875,27.564024735242107L201.8671875,18.966719658779233L204.18749999999997,20.781637322689775L206.5078125,23.40571594717245L208.828125,23.055127738309732L211.1484375,19.66491324454544L213.46875000000003,31.25890990346668L215.7890625,20.348343318594328L218.109375,23.67311628695044L220.4296875,19.642858365816704L222.75,19.209534232105497L225.0703125,20.192753982863234L227.390625,21.763501240738783L229.7109375,35.8951949157885L232.03125,26.6645351866526L234.3515625,20.991731133311966L236.671875,21.74096428815805L238.99218749999997,22.254553718226283L241.3125,29.096899066120365L243.6328125,25.219518815300273L245.953125,18.51137077595505L248.27343750000003,17.768736006958118L250.59375,23.808247613587532L252.9140625,19.370305861745535" style="fill: none;" fill="none"></path></g></g></g></g></g></g><g transform="translate(51, 176)" clip-path="url(#clip_1)"><clipPath id="clip_1"><rect width="278" height="23"></rect></clipPath><g><g><line x1="0" y1="0" x2="0" y2="5" style="visibility: inherit;" fill="rgb(0, 0, 0)" stroke="rgb(204, 204, 204)" stroke-width="1px"></line><line x1="23.203125" y1="0" x2="23.203125" y2="5" style="visibility: inherit;" fill="rgb(0, 0, 0)" stroke="rgb(204, 204, 204)" stroke-width="1px"></line><line x1="46.40625" y1="0" x2="46.40625" y2="5" style="visibility: inherit;" fill="rgb(0, 0, 0)" stroke="rgb(204, 204, 204)" stroke-width="1px"></line><line x1="69.609375" y1="0" x2="69.609375" y2="5" style="visibility: inherit;" fill="rgb(0, 0, 0)" stroke="rgb(204, 204, 204)" stroke-width="1px"></line><line x1="92.8125" y1="0" x2="92.8125" y2="5" style="visibility: inherit;" fill="rgb(0, 0, 0)" stroke="rgb(204, 204, 204)" stroke-width="1px"></line><line x1="116.015625" y1="0" x2="116.015625" y2="5" style="visibility: inherit;" fill="rgb(0, 0, 0)" stroke="rgb(204, 204, 204)" stroke-width="1px"></line><line x1="139.21875" y1="0" x2="139.21875" y2="5" style="visibility: inherit;" fill="rgb(0, 0, 0)" stroke="rgb(204, 204, 204)" stroke-width="1px"></line><line x1="162.421875" y1="0" x2="162.421875" y2="5" style="visibility: inherit;" fill="rgb(0, 0, 0)" stroke="rgb(204, 204, 204)" stroke-width="1px"></line><line x1="185.625" y1="0" x2="185.625" y2="5" style="visibility: inherit;" fill="rgb(0, 0, 0)" stroke="rgb(204, 204, 204)" stroke-width="1px"></line><line x1="208.828125" y1="0" x2="208.828125" y2="5" style="visibility: inherit;" fill="rgb(0, 0, 0)" stroke="rgb(204, 204, 204)" stroke-width="1px"></line><line x1="232.03125" y1="0" x2="232.03125" y2="5" style="visibility: inherit;" fill="rgb(0, 0, 0)" stroke="rgb(204, 204, 204)" stroke-width="1px"></line><line x1="255.234375" y1="0" x2="255.234375" y2="5" style="visibility: inherit;" fill="rgb(0, 0, 0)" stroke="rgb(204, 204, 204)" stroke-width="1px"></line><line x1="278.4375" y1="0" x2="278.4375" y2="5" style="visibility: inherit;" fill="rgb(0, 0, 0)" stroke="rgb(204, 204, 204)" stroke-width="1px"></line></g><g transform="translate(0, 8)"><text x="0" y="0" dx="0em" dy="0.95em" style="text-anchor: middle; visibility: hidden; font-family: Roboto, sans-serif; font-size: 12px; font-weight: 200;" fill="rgb(255, 255, 255)" stroke="none" stroke-width="1px">-10</text><text x="23.203125" y="0" dx="0em" dy="0.95em" style="text-anchor: middle; visibility: inherit; font-family: Roboto, sans-serif; font-size: 12px; font-weight: 200;" fill="rgb(255, 255, 255)" stroke="none" stroke-width="1px">0</text><text x="46.40625" y="0" dx="0em" dy="0.95em" style="text-anchor: middle; visibility: inherit; font-family: Roboto, sans-serif; font-size: 12px; font-weight: 200;" fill="rgb(255, 255, 255)" stroke="none" stroke-width="1px">10</text><text x="69.609375" y="0" dx="0em" dy="0.95em" style="text-anchor: middle; visibility: inherit; font-family: Roboto, sans-serif; font-size: 12px; font-weight: 200;" fill="rgb(255, 255, 255)" stroke="none" stroke-width="1px">20</text><text x="92.8125" y="0" dx="0em" dy="0.95em" style="text-anchor: middle; visibility: inherit; font-family: Roboto, sans-serif; font-size: 12px; font-weight: 200;" fill="rgb(255, 255, 255)" stroke="none" stroke-width="1px">30</text><text x="116.015625" y="0" dx="0em" dy="0.95em" style="text-anchor: middle; visibility: inherit; font-family: Roboto, sans-serif; font-size: 12px; font-weight: 200;" fill="rgb(255, 255, 255)" stroke="none" stroke-width="1px">40</text><text x="139.21875" y="0" dx="0em" dy="0.95em" style="text-anchor: middle; visibility: inherit; font-family: Roboto, sans-serif; font-size: 12px; font-weight: 200;" fill="rgb(255, 255, 255)" stroke="none" stroke-width="1px">50</text><text x="162.421875" y="0" dx="0em" dy="0.95em" style="text-anchor: middle; visibility: inherit; font-family: Roboto, sans-serif; font-size: 12px; font-weight: 200;" fill="rgb(255, 255, 255)" stroke="none" stroke-width="1px">60</text><text x="185.625" y="0" dx="0em" dy="0.95em" style="text-anchor: middle; visibility: inherit; font-family: Roboto, sans-serif; font-size: 12px; font-weight: 200;" fill="rgb(255, 255, 255)" stroke="none" stroke-width="1px">70</text><text x="208.828125" y="0" dx="0em" dy="0.95em" style="text-anchor: middle; visibility: inherit; font-family: Roboto, sans-serif; font-size: 12px; font-weight: 200;" fill="rgb(255, 255, 255)" stroke="none" stroke-width="1px">80</text><text x="232.03125" y="0" dx="0em" dy="0.95em" style="text-anchor: middle; visibility: inherit; font-family: Roboto, sans-serif; font-size: 12px; font-weight: 200;" fill="rgb(255, 255, 255)" stroke="none" stroke-width="1px">90</text><text x="255.234375" y="0" dx="0em" dy="0.95em" style="text-anchor: middle; visibility: inherit; font-family: Roboto, sans-serif; font-size: 12px; font-weight: 200;" fill="rgb(255, 255, 255)" stroke="none" stroke-width="1px">100</text><text x="278.4375" y="0" dx="0em" dy="0.95em" style="text-anchor: middle; visibility: hidden; font-family: Roboto, sans-serif; font-size: 12px; font-weight: 200;" fill="rgb(255, 255, 255)" stroke="none" stroke-width="1px">110</text></g><line x1="0" y1="0" x2="278.4375" y2="0" fill="rgb(0, 0, 0)" stroke="rgb(204, 204, 204)" stroke-width="1px"></line></g></g></g></g></svg>