<svg viewBox="0 0 330 200" xmlns="http://www.w3.org/2000/svg"><g><g><g><g><g><line x1="51.5625" y1="176.921875" x2="46.5625" y2="176.921875" style="visibility: inherit;" fill="rgb(0, 0, 0)" stroke="rgb(204, 204, 204)" stroke-width="1px"></line><line x1="51.5625" y1="159.2296875" x2="46.5625" y2="159.2296875" style="visibility: inherit;" fill="rgb(0, 0, 0)" stroke="rgb(204, 204, 204)" stroke-width="1px"></line><line x1="51.5625" y1="141.5375" x2="46.5625" y2="141.5375" style="visibility: inherit;" fill="rgb(0, 0, 0)" stroke="rgb(204, 204, 204)" stroke-width="1px"></line><line x1="51.5625" y1="123.84531249999999" x2="46.5625" y2="123.84531249999999" style="visibility: inherit;" fill="rgb(0, 0, 0)" stroke="rgb(204, 204, 204)" stroke-width="1px"></line><line x1="51.5625" y1="106.15312500000002" x2="46.5625" y2="106.15312500000002" style="visibility: inherit;" fill="rgb(0, 0, 0)" stroke="rgb(204, 204, 204)" stroke-width="1px"></line><line x1="51.5625" y1="88.4609375" x2="46.5625" y2="88.4609375" style="visibility: inherit;" fill="rgb(0, 0, 0)" stroke="rgb(204, 204, 204)" stroke-width="1px"></line><line x1="51.5625" y1="70.76875" x2="46.5625" y2="70.76875" style="visibility: inherit;" fill="rgb(0, 0, 0)" stroke="rgb(204, 204, 204)" stroke-width="1px"></line><line x1="51.5625" y1="53.07656249999999" x2="46.5625" y2="53.07656249999999" style="visibility: inherit;" fill="rgb(0, 0, 0)" stroke="rgb(204, 204, 204)" stroke-width="1px"></line><line x1="51.5625" y1="35.38437500000001" x2="46.5625" y2="35.38437500000001" style="visibility: inherit;" fill="rgb(0, 0, 0)" stroke="rgb(204, 204, 204)" stroke-width="1px"></line><line x1="51.5625" y1="17.692187499999996" x2="46.5625" y2="17.692187499999996" style="visibility: inherit;" fill="rgb(0, 0, 0)" stroke="rgb(204, 204, 204)" stroke-width="1px"></line><line x1="51.5625" y1="0" x2="46.5625" y2="0" style="visibility: inherit;" fill="rgb(0, 0, 0)" stroke="rgb(204, 204, 204)" stroke-width="1px"></line></g><g transform="translate(41.5625, 0)"><text x="0" y="176.921875" dx="0em" dy="0.3em" style="text-anchor: end; visibility: hidden; font-family: Roboto, sans-serif; font-size: 12px; font-weight: 200;" fill="rgb(255, 255, 255)" stroke="none" stroke-width="1px">0.02</text><text x="0" y="159.2296875" dx="0em" dy="0.3em" style="text-anchor: end; visibility: inherit; font-family: Roboto, sans-serif; font-size: 12px; font-weight: 200;" fill="rgb(255, 255, 255)" stroke="none" stroke-width="1px">0.04</text><text x="0" y="141.5375" dx="0em" dy="0.3em" style="text-anchor: end; visibility: hidden; font-family: Roboto, sans-serif; font-size: 12px; font-weight: 200;" fill="rgb(255, 255, 255)" stroke="none" stroke-width="1px">0.06</text><text x="0" y="123.84531249999999" dx="0em" dy="0.3em" style="text-anchor: end; visibility: inherit; font-family: Roboto, sans-serif; font-size: 12px; font-weight: 200;" fill="rgb(255, 255, 255)" stroke="none" stroke-width="1px">0.08</text><text x="0" y="106.15312500000002" dx="0em" dy="0.3em" style="text-anchor: end; visibility: hidden; font-family: Roboto, sans-serif; font-size: 12px; font-weight: 200;" fill="rgb(255, 255, 255)" stroke="none" stroke-width="1px">0.1</text><text x="0" y="88.4609375" dx="0em" dy="0.3em" style="text-anchor: end; visibility: inherit; font-family: Roboto, sans-serif; font-size: 12px; font-weight: 200;" fill="rgb(255, 255, 255)" stroke="none" stroke-width="1px">0.12</text><text x="0" y="70.76875" dx="0em" dy="0.3em" style="text-anchor: end; visibility: hidden; font-family: Roboto, sans-serif; font-size: 12px; font-weight: 200;" fill="rgb(255, 255, 255)" stroke="none" stroke-width="1px">0.14</text><text x="0" y="53.07656249999999" dx="0em" dy="0.3em" style="text-anchor: end; visibility: inherit; font-family: Roboto, sans-serif; font-size: 12px; font-weight: 200;" fill="rgb(255, 255, 255)" stroke="none" stroke-width="1px">0.16</text><text x="0" y="35.38437500000001" dx="0em" dy="0.3em" style="text-anchor: end; visibility: hidden; font-family: Roboto, sans-serif; font-size: 12px; font-weight: 200;" fill="rgb(255, 255, 255)" stroke="none" stroke-width="1px">0.18</text><text x="0" y="17.692187499999996" dx="0em" dy="0.3em" style="text-anchor: end; visibility: inherit; font-family: Roboto, sans-serif; font-size: 12px; font-weight: 200;" fill="rgb(255, 255, 255)" stroke="none" stroke-width="1px">0.2</text><text x="0" y="0" dx="0em" dy="0.3em" style="text-anchor: end; visibility: hidden; font-family: Roboto, sans-serif; font-size: 12px; font-weight: 200;" fill="rgb(255, 255, 255)" stroke="none" stroke-width="1px">0.22</text></g><line x1="51.5625" y1="0" x2="51.5625" y2="176.921875" fill="rgb(0, 0, 0)" stroke="rgb(204, 204, 204)" stroke-width="1px"></line></g></g><g transform="translate(51, 0)" clip-path="url(#clip_0)"><clipPath id="clip_0"><rect width="278" height="176"></rect></clipPath><g><g><g><line x1="0" y1="0" x2="0" y2="176.921875" fill="rgb(0, 0, 0)" stroke="rgb(189, 189, 189)" stroke-width="1px" opacity="0.25"></line><line x1="23.203125" y1="0" x2="23.203125" y2="176.921875" fill="rgb(0, 0, 0)" stroke="rgb(189, 189, 189)" stroke-width="1px" opacity="0.25"></line><line x1="46.40625" y1="0" x2="46.40625" y2="176.921875" fill="rgb(0, 0, 0)" stroke="rgb(189, 189, 189)" stroke-width="1px" opacity="0.25"></line><line x1="69.609375" y1="0" x2="69.609375" y2="176.921875" fill="rgb(0, 0, 0)" stroke="rgb(189, 189, 189)" stroke-width="1px" opacity="0.25"></line><line x1="92.8125" y1="0" x2="92.8125" y2="176.921875" fill="rgb(0, 0, 0)" stroke="rgb(189, 189, 189)" stroke-width="1px" opacity="0.25"></line><line x1="116.015625" y1="0" x2="116.015625" y2="176.921875" fill="rgb(0, 0, 0)" stroke="rgb(189, 189, 189)" stroke-width="1px" opacity="0.25"></line><line x1="139.21875" y1="0" x2="139.21875" y2="176.921875" fill="rgb(0, 0, 0)" stroke="rgb(189, 189, 189)" stroke-width="1px" opacity="0.25"></line><line x1="162.421875" y1="0" x2="162.421875" y2="176.921875" fill="rgb(0, 0, 0)" stroke="rgb(189, 189, 189)" stroke-width="1px" opacity="0.25"></line><line x1="185.625" y1="0" x2="185.625" y2="176.921875" fill="rgb(0, 0, 0)" stroke="rgb(189, 189, 189)" stroke-width="1px" opacity="0.25"></line><line x1="208.828125" y1="0" x2="208.828125" y2="176.921875" fill="rgb(0, 0, 0)" stroke="rgb(189, 189, 189)" stroke-width="1px" opacity="0.25"></line><line x1="232.03125" y1="0" x2="232.03125" y2="176.921875" fill="rgb(0, 0, 0)" stroke="rgb(189, 189, 189)" stroke-width="1px" opacity="0.25"></line><line x1="255.234375" y1="0" x2="255.234375" y2="176.921875" fill="rgb(0, 0, 0)" stroke="rgb(189, 189, 189)" stroke-width="1px" opacity="0.25"></line><line x1="278.4375" y1="0" x2="278.4375" y2="176.921875" fill="rgb(0, 0, 0)" stroke="rgb(189, 189, 189)" stroke-width="1px" opacity="0.25"></line></g><g><line x1="0" y1="176.921875" x2="278.4375" y2="176.921875" fill="rgb(0, 0, 0)" stroke="rgb(189, 189, 189)" stroke-width="1px" opacity="0.25"></line><line x1="0" y1="159.2296875" x2="278.4375" y2="159.2296875" fill="rgb(0, 0, 0)" stroke="rgb(189, 189, 189)" stroke-width="1px" opacity="0.25"></line><line x1="0" y1="141.5375" x2="278.4375" y2="141.5375" fill="rgb(0, 0, 0)" stroke="rgb(189, 189, 189)" stroke-width="1px" opacity="0.25"></line><line x1="0" y1="123.84531249999999" x2="278.4375" y2="123.84531249999999" fill="rgb(0, 0, 0)" stroke="rgb(189, 189, 189)" stroke-width="1px" opacity="0.25"></line><line x1="0" y1="106.15312500000002" x2="278.4375" y2="106.15312500000002" fill="rgb(0, 0, 0)" stroke="rgb(189, 189, 189)" stroke-width="1px" opacity="0.25"></line><line x1="0" y1="88.4609375" x2="278.4375" y2="88.4609375" fill="rgb(0, 0, 0)" stroke="rgb(189, 189, 189)" stroke-width="1px" opacity="0.25"></line><line x1="0" y1="70.76875" x2="278.4375" y2="70.76875" fill="rgb(0, 0, 0)" stroke="rgb(189, 189, 189)" stroke-width="1px" opacity="0.25"></line><line x1="0" y1="53.07656249999999" x2="278.4375" y2="53.07656249999999" fill="rgb(0, 0, 0)" stroke="rgb(189, 189, 189)" stroke-width="1px" opacity="0.25"></line><line x1="0" y1="35.38437500000001" x2="278.4375" y2="35.38437500000001" fill="rgb(0, 0, 0)" stroke="rgb(189, 189, 189)" stroke-width="1px" opacity="0.25"></line><line x1="0" y1="17.692187499999996" x2="278.4375" y2="17.692187499999996" fill="rgb(0, 0, 0)" stroke="rgb(189, 189, 189)" stroke-width="1px" opacity="0.25"></line><line x1="0" y1="0" x2="278.4375" y2="0" fill="rgb(0, 0, 0)" stroke="rgb(189, 189, 189)" stroke-width="1px" opacity="0.25"></line></g></g></g><g><g><line x1="0" y1="194.61406250000002" x2="278.4375" y2="194.61406250000002" fill="rgb(0, 0, 0)" stroke="rgb(153, 153, 153)" stroke-width="1.5px"></line></g></g><g><g><line x1="23.203125" y1="0" x2="23.203125" y2="176.921875" fill="rgb(0, 0, 0)" stroke="rgb(153, 153, 153)" stroke-width="1.5px"></line></g></g><g><g><g><g><g><path stroke="rgb(204, 51, 17)" stroke-width="2px" d="M27.84375,-4.092216807299693L30.1640625,4.18734131970903L32.484375,5.846540775706406L34.8046875,10.172494378135534L37.125,17.127063409177254L39.4453125,-0.2687283811463075L41.765625,10.867356762984029L44.0859375,27.078497214366454L46.40625,32.77166167962338L48.7265625,45.30752481033864L51.04687499999999,61.66460058116371L53.36718750000001,68.31940881797283L55.6875,63.38582110499881L58.0078125,60.19876081726792L60.328125,73.86472771624489L62.6484375,85.35768170904564L64.96875,83.38795669302223L67.2890625,76.1102218178938L69.609375,87.18351472147356L71.92968750000001,91.71391574960025L74.25,96.61673182951883L76.5703125,99.29685193878427L78.890625,101.30079793254716L81.2109375,100.42001100770513L83.53125,92.43250515567446L85.8515625,96.37144042930176L88.171875,106.30174585590912L90.4921875,110.24056264569685L92.8125,114.48607624785669L95.1328125,111.42773356670878L97.453125,113.30171524916544L99.7734375,101.75490600133763L102.09374999999999,111.05502329448238L104.4140625,113.80517088605649L106.73437500000001,104.81117076901747L109.0546875,99.13467791634422L111.375,104.21143998284214L113.6953125,113.87980222222704L116.015625,120.9644937207301L118.3359375,121.27947766216724L120.65625,125.73407101425965L122.9765625,127.51076095353672L125.296875,127.76821428884365L127.6171875,124.97921905021066L129.9375,122.53277543383925L132.2578125,123.87543635342284L134.578125,124.24843301207522L136.8984375,123.97596610624726L139.21875,128.20148817975303L141.5390625,131.02564425791084L143.85937500000003,124.66884097169773L146.1796875,117.22965251534399L148.5,121.42218145066856L150.8203125,127.55137412027678L153.140625,128.22547998850942L155.4609375,129.6018808489691L157.78125,122.17979291047061L160.1015625,127.64521304173292L162.421875,123.56890922244563L164.7421875,129.67476191240328L167.0625,131.63530772246773L169.38281249999997,131.8221081993117L171.703125,135.20751871277352L174.0234375,134.82662997708707L176.34375,133.49548649940854L178.66406250000003,131.46331955418495L180.984375,135.78658836462373L183.3046875,135.61388469128025L185.625,135.81907560727984L187.9453125,135.94856483033183L190.265625,133.18527889561992L192.5859375,132.96394202366378L194.90625,130.8398901668856L197.2265625,135.5053760847271L199.546875,132.0779113889043L201.8671875,135.28999604419295L204.18749999999997,136.29468158100426L206.5078125,137.30615481645057L208.828125,136.98798084058353L211.1484375,136.78033568731243L213.46875000000003,132.72712540054349L215.7890625,135.6303329574026L218.109375,134.9414228783597L220.4296875,135.92207660703843L222.75,137.48233236620715L225.0703125,138.2963612618803L227.390625,137.6092880237909L229.7109375,129.36859972088035L232.03125,130.36048143798894L234.3515625,132.91418275047712L236.671875,134.37367478837257L238.99218749999997,136.07748174674808L241.3125,133.25688182126544L243.6328125,132.0391687676877L245.953125,136.43771708515146L248.27343750000003,138.65675694056682L250.59375,134.72998611167384L252.9140625,137.3880115992585" style="fill: none;" fill="none"></path></g><g><path stroke="rgb(0, 119, 187)" stroke-width="2px" d="M30.1640625,-1.5531590509273085L32.484375,9.920122551706724L34.8046875,21.812776384973276L37.125,28.076952194576414L39.4453125,35.93532323406173L41.765625,39.797776442064055L44.0859375,45.92048070036986L46.40625,51.60189761817299L48.7265625,57.89940634172336L51.04687499999999,64.4633594151255L53.36718750000001,68.8461945116111L55.6875,74.75549667688924L58.0078125,78.91768785492422L60.328125,81.09268677644612L62.6484375,86.83014679549453L64.96875,89.44040710128472L67.2890625,90.5119738516492L69.609375,93.48536818449743L71.92968750000001,97.54977561864747L74.25,99.77922477343441L76.5703125,103.82693086788238L78.890625,106.85408835238873L81.2109375,107.44758475486469L83.53125,109.20667044822348L85.8515625,111.45144358286719L88.171875,114.95187137447759L90.4921875,115.39254468691757L92.8125,118.08487170818842L95.1328125,114.27130482358261L97.453125,116.47438091007909L99.7734375,115.57165257632171L102.09374999999999,115.70321592045465L104.4140625,119.39600063336508L106.73437500000001,122.43284432694747L109.0546875,119.07977811421833L111.375,117.90178681088393L113.6953125,121.42510986736387L116.015625,124.77321991611606L118.3359375,126.73488752393403L120.65625,128.7563556858124L122.9765625,130.37491943023844L125.296875,132.85657583286365L127.6171875,133.69831095713226L129.9375,132.93152295130997L132.2578125,131.96293153208597L134.578125,133.26025691174738L136.8984375,132.49294146247234L139.21875,133.04657344985478L141.5390625,135.5280694958996L143.85937500000003,137.96453544151518L146.1796875,139.60236838696798L148.5,138.32091227019663L150.8203125,140.2913567906271L153.140625,140.8986809479555L155.4609375,140.85031138180852L157.78125,141.4867905233872L160.1015625,141.0355005427381L162.421875,142.84702892829907L164.7421875,144.53145955127349L167.0625,143.85190410439384L169.38281249999997,142.92687715825156L171.703125,142.69895054717546L174.0234375,145.34229960848202L176.34375,145.4768607541915L178.66406250000003,146.27479565913768L180.984375,147.41608632663903L183.3046875,149.0985511674118L185.625,148.5700227843341L187.9453125,149.1454351735287L190.265625,149.22880954527676L192.5859375,150.38174362933864L194.90625,150.8898618120606L197.2265625,150.3125628060977L199.546875,151.14132334461004L201.8671875,151.9353578893321L204.18749999999997,153.04410114118878L206.5078125,152.00761377798702L208.828125,151.43473490079677L211.1484375,151.62835590136032L213.46875000000003,150.39098997489427L215.7890625,152.35346590013265L218.109375,153.8616066635988L220.4296875,153.62692992465654L222.75,151.33501695188465L225.0703125,152.46574987504866L227.390625,154.1388205950498L229.7109375,154.17904334457825L232.03125,153.73037816788954L234.3515625,153.69049726213768L236.671875,155.01614746074083L238.99218749999997,155.8770440722949L241.3125,153.63620491029562L243.6328125,151.17493665997046L245.953125,153.75989328088397L248.27343750000003,155.47311692903472L250.59375,155.9527356109146L252.9140625,157.12751837657945" style="fill: none;" fill="none"></path></g></g></g></g><g opacity="0.2"><g><g><g><path stroke="rgb(204, 51, 17)" stroke-width="2px" d="M23.203125,-70.81081019034607L25.523437499999996,7.582303401827808L27.84375,12.92176468512043L30.1640625,13.924101677071299L32.484375,8.012791585456576L34.8046875,16.156845553591843L37.125,27.072208396671336L39.4453125,-25.631959811039252L41.765625,27.29091927739791L44.0859375,51.150151473516594L46.40625,41.25977179482579L48.7265625,64.04309989283793L51.04687499999999,86.14680554699154L53.36718750000001,78.2885837110691L55.6875,55.99123878269456L58.0078125,55.42041814750991L60.328125,94.35789508551827L62.6484375,102.594194638473L64.96875,80.43366923676805L67.2890625,65.19428471899592L69.609375,103.79284679114355L71.92968750000001,98.50936821701472L74.25,103.97085915184581L76.5703125,103.31700035410469L78.890625,104.30670268000105L81.2109375,99.09883437659593L83.53125,80.45126681546682L85.8515625,102.27983729254922L88.171875,121.19719484860545L90.4921875,116.14878565345427L92.8125,120.85434524323793L95.1328125,106.84022015349476L97.453125,116.11268754913473L99.7734375,84.4346929566702L102.09374999999999,125.00519883451054L104.4140625,117.93039220250213L106.73437500000001,91.32017073261088L109.0546875,90.6199386900291L111.375,111.82658305431252L113.6953125,128.38234554899392L116.015625,131.59153095427902L118.3359375,121.75195357394406L120.65625,132.41596103918275L122.9765625,130.17579586168287L125.296875,128.15439429173713L127.6171875,120.79572619269604L129.9375,118.86311000951102L132.2578125,125.88942773272285L134.578125,124.8079280000413L136.8984375,123.56726574751085L139.21875,134.5397712899605L141.5390625,135.261878375127L143.85937500000003,115.13363604240587L146.1796875,106.07086983083283L148.5,127.71097485364882L150.8203125,136.74516312468333L153.140625,129.236638790858L155.4609375,131.6664821396582L157.78125,111.04666100272445L160.1015625,135.8433432386257L162.421875,117.45445349351505L164.7421875,138.83354094733951L167.0625,134.5761264375644L169.38281249999997,132.1023089145776L171.703125,140.2856344829663L174.0234375,134.2552968735574L176.34375,131.49877128289083L178.66406250000003,128.4150691363495L180.984375,142.2714915802819L183.3046875,135.3548291812651L185.625,136.12686198127923L187.9453125,136.1427986649098L190.265625,129.0403499935521L192.5859375,132.63193671572955L194.90625,127.65381238171832L197.2265625,142.50360496148934L199.546875,126.9367143451702L201.8671875,140.10812302712586L204.18749999999997,137.80170988622123L206.5078125,138.82336466962008L208.828125,136.51071987678299L211.1484375,136.46886795740576L213.46875000000003,126.64730997039007L215.7890625,139.98514429269127L218.109375,133.90805775979535L220.4296875,137.39305720005652L222.75,139.82271600496026L225.0703125,139.51740460539006L227.390625,136.57867816665677L229.7109375,117.00756726651454L232.03125,131.8483040136518L234.3515625,136.7447347192094L236.671875,136.56291284521578L238.99218749999997,138.63319218431135L241.3125,129.0259819330415L243.6328125,130.21259918732105L245.953125,143.03553956134712L248.27343750000003,141.98531672368992L250.59375,128.83982986833436L252.9140625,141.37504983063556" style="fill: none;" fill="none"></path></g><g><path stroke="rgb(0, 119, 187)" stroke-width="2px" d="M25.523437499999996,-17.49512941827996L27.84375,9.773300812626253L30.1640625,12.068156892014663L32.484375,24.89963901210576L34.8046875,38.264597991760816L37.125,37.03482382912188L39.4453125,47.39290364999324L41.765625,45.494144680956374L44.0859375,55.01198295950889L46.40625,60.07249296158552L48.7265625,67.31139866267333L51.04687499999999,74.28785657957198L53.36718750000001,75.41186072612183L55.6875,83.61250376193786L58.0078125,85.1580391222844L60.328125,84.35426477207804L62.6484375,95.43488008358983L64.96875,93.35539991308471L67.2890625,92.11922603175046L69.609375,97.945296615758L71.92968750000001,103.6462530288147L74.25,103.12335448903033L76.5703125,109.89844206061682L78.890625,111.39480306340849L81.2109375,108.33782682758758L83.53125,111.84529448724354L85.8515625,114.81859983857723L88.171875,120.2025098375045L90.4921875,116.05355441202411L92.8125,122.12336134728977L95.1328125,108.55095525544604L97.453125,119.77899477682078L99.7734375,114.2175601403462L102.09374999999999,115.90056093099994L104.4140625,124.9351776075084L106.73437500000001,126.98810982033612L109.0546875,114.05017882625108L111.375,116.13479986244349L113.6953125,126.71009444030935L116.015625,129.79538498253098L118.3359375,129.677388933301L120.65625,131.78855792717079L122.9765625,132.80276504617652L125.296875,136.5790604361566L127.6171875,134.96091364340393L129.9375,131.78134094264826L132.2578125,130.51004440330436L134.578125,135.2062449811958L136.8984375,131.34196828857532L139.21875,133.87702143092176L141.5390625,139.25031356494875L143.85937500000003,141.61923435992796L146.1796875,142.0591178051429L148.5,136.3987280950416L150.8203125,143.247023571271L153.140625,141.80966718394777L155.4609375,140.77775703258814L157.78125,142.4415092357551L160.1015625,140.3585655717645L162.421875,145.56432150664043L164.7421875,147.058105485735L167.0625,142.83257093407448L169.38281249999997,141.53933673903813L171.703125,142.35706063056134L174.0234375,149.30732320044189L176.34375,145.6787024727557L178.66406250000003,147.47169801655693L180.984375,149.1280223278911L183.3046875,151.62224842857103L185.625,147.77723020971754L187.9453125,150.0085537573206L190.265625,149.35387110289884L192.5859375,152.11114475543144L194.90625,151.65203908614347L197.2265625,149.44661429715342L199.546875,152.38446415237848L201.8671875,153.12640970641513L204.18749999999997,154.70721601897384L206.5078125,150.45288273318437L208.828125,150.5754165850114L211.1484375,151.91878740220562L213.46875000000003,148.5349410851952L215.7890625,155.29717978799016L218.109375,156.12381780879804L220.4296875,153.2749148162431L222.75,147.89714749272682L225.0703125,154.16184925979468L227.390625,156.64842667505144L229.7109375,154.23937746887094L232.03125,153.0573804028565L234.3515625,153.63067590350983L236.671875,157.00462275864555L238.99218749999997,157.16838898962595L241.3125,150.27494616729672L243.6328125,147.48303428448273L245.953125,157.6373282122542L248.27343750000003,158.04295240126083L250.59375,156.67216363373444L252.9140625,158.88969252507667" style="fill: none;" fill="none"></path></g></g></g></g></g></g><g transform="translate(51, 176)" clip-path="url(#clip_1)"><clipPath id="clip_1"><rect width="278" height="23"></rect></clipPath><g><g><line x1="0" y1="0" x2="0" y2="5" style="visibility: inherit;" fill="rgb(0, 0, 0)" stroke="rgb(204, 204, 204)" stroke-width="1px"></line><line x1="23.203125" y1="0" x2="23.203125" y2="5" style="visibility: inherit;" fill="rgb(0, 0, 0)" stroke="rgb(204, 204, 204)" stroke-width="1px"></line><line x1="46.40625" y1="0" x2="46.40625" y2="5" style="visibility: inherit;" fill="rgb(0, 0, 0)" stroke="rgb(204, 204, 204)" stroke-width="1px"></line><line x1="69.609375" y1="0" x2="69.609375" y2="5" style="visibility: inherit;" fill="rgb(0, 0, 0)" stroke="rgb(204, 204, 204)" stroke-width="1px"></line><line x1="92.8125" y1="0" x2="92.8125" y2="5" style="visibility: inherit;" fill="rgb(0, 0, 0)" stroke="rgb(204, 204, 204)" stroke-width="1px"></line><line x1="116.015625" y1="0" x2="116.015625" y2="5" style="visibility: inherit;" fill="rgb(0, 0, 0)" stroke="rgb(204, 204, 204)" stroke-width="1px"></line><line x1="139.21875" y1="0" x2="139.21875" y2="5" style="visibility: inherit;" fill="rgb(0, 0, 0)" stroke="rgb(204, 204, 204)" stroke-width="1px"></line><line x1="162.421875" y1="0" x2="162.421875" y2="5" style="visibility: inherit;" fill="rgb(0, 0, 0)" stroke="rgb(204, 204, 204)" stroke-width="1px"></line><line x1="185.625" y1="0" x2="185.625" y2="5" style="visibility: inherit;" fill="rgb(0, 0, 0)" stroke="rgb(204, 204, 204)" stroke-width="1px"></line><line x1="208.828125" y1="0" x2="208.828125" y2="5" style="visibility: inherit;" fill="rgb(0, 0, 0)" stroke="rgb(204, 204, 204)" stroke-width="1px"></line><line x1="232.03125" y1="0" x2="232.03125" y2="5" style="visibility: inherit;" fill="rgb(0, 0, 0)" stroke="rgb(204, 204, 204)" stroke-width="1px"></line><line x1="255.234375" y1="0" x2="255.234375" y2="5" style="visibility: inherit;" fill="rgb(0, 0, 0)" stroke="rgb(204, 204, 204)" stroke-width="1px"></line><line x1="278.4375" y1="0" x2="278.4375" y2="5" style="visibility: inherit;" fill="rgb(0, 0, 0)" stroke="rgb(204, 204, 204)" stroke-width="1px"></line></g><g transform="translate(0, 8)"><text x="0" y="0" dx="0em" dy="0.95em" style="text-anchor: middle; visibility: hidden; font-family: Roboto, sans-serif; font-size: 12px; font-weight: 200;" fill="rgb(255, 255, 255)" stroke="none" stroke-width="1px">-10</text><text x="23.203125" y="0" dx="0em" dy="0.95em" style="text-anchor: middle; visibility: inherit; font-family: Roboto, sans-serif; font-size: 12px; font-weight: 200;" fill="rgb(255, 255, 255)" stroke="none" stroke-width="1px">0</text><text x="46.40625" y="0" dx="0em" dy="0.95em" style="text-anchor: middle; visibility: inherit; font-family: Roboto, sans-serif; font-size: 12px; font-weight: 200;" fill="rgb(255, 255, 255)" stroke="none" stroke-width="1px">10</text><text x="69.609375" y="0" dx="0em" dy="0.95em" style="text-anchor: middle; visibility: inherit; font-family: Roboto, sans-serif; font-size: 12px; font-weight: 200;" fill="rgb(255, 255, 255)" stroke="none" stroke-width="1px">20</text><text x="92.8125" y="0" dx="0em" dy="0.95em" style="text-anchor: middle; visibility: inherit; font-family: Roboto, sans-serif; font-size: 12px; font-weight: 200;" fill="rgb(255, 255, 255)" stroke="none" stroke-width="1px">30</text><text x="116.015625" y="0" dx="0em" dy="0.95em" style="text-anchor: middle; visibility: inherit; font-family: Roboto, sans-serif; font-size: 12px; font-weight: 200;" fill="rgb(255, 255, 255)" stroke="none" stroke-width="1px">40</text><text x="139.21875" y="0" dx="0em" dy="0.95em" style="text-anchor: middle; visibility: inherit; font-family: Roboto, sans-serif; font-size: 12px; font-weight: 200;" fill="rgb(255, 255, 255)" stroke="none" stroke-width="1px">50</text><text x="162.421875" y="0" dx="0em" dy="0.95em" style="text-anchor: middle; visibility: inherit; font-family: Roboto, sans-serif; font-size: 12px; font-weight: 200;" fill="rgb(255, 255, 255)" stroke="none" stroke-width="1px">60</text><text x="185.625" y="0" dx="0em" dy="0.95em" style="text-anchor: middle; visibility: inherit; font-family: Roboto, sans-serif; font-size: 12px; font-weight: 200;" fill="rgb(255, 255, 255)" stroke="none" stroke-width="1px">70</text><text x="208.828125" y="0" dx="0em" dy="0.95em" style="text-anchor: middle; visibility: inherit; font-family: Roboto, sans-serif; font-size: 12px; font-weight: 200;" fill="rgb(255, 255, 255)" stroke="none" stroke-width="1px">80</text><text x="232.03125" y="0" dx="0em" dy="0.95em" style="text-anchor: middle; visibility: inherit; font-family: Roboto, sans-serif; font-size: 12px; font-weight: 200;" fill="rgb(255, 255, 255)" stroke="none" stroke-width="1px">90</text><text x="255.234375" y="0" dx="0em" dy="0.95em" style="text-anchor: middle; visibility: inherit; font-family: Roboto, sans-serif; font-size: 12px; font-weight: 200;" fill="rgb(255, 255, 255)" stroke="none" stroke-width="1px">100</text><text x="278.4375" y="0" dx="0em" dy="0.95em" style="text-anchor: middle; visibility: hidden; font-family: Roboto, sans-serif; font-size: 12px; font-weight: 200;" fill="rgb(255, 255, 255)" stroke="none" stroke-width="1px">110</text></g><line x1="0" y1="0" x2="278.4375" y2="0" fill="rgb(0, 0, 0)" stroke="rgb(204, 204, 204)" stroke-width="1px"></line></g></g></g></g></svg>